<svg xmlns="http://www.w3.org/2000/svg" xmlns:xlink="http://www.w3.org/1999/xlink" id="Layer_1" x="0" y="0" version="1.1" viewBox="0 0 24 24" xml:space="preserve" style="enable-background:new 0 0 24 24"><style type="text/css">.st0{fill:#1eaedb}</style><title id="simpleicons-medium-icon">Medium icon</title><path d="M2.8,6.4c0-0.3-0.1-0.6-0.3-0.8L0.3,2.9V2.5h7l5.4,11.8l4.7-11.8H24v0.4l-1.9,1.8c-0.2,0.1-0.2,0.3-0.2,0.5	v13.5c0,0.2,0,0.4,0.2,0.5l1.9,1.8v0.4h-9.4v-0.4l1.9-1.9c0.2-0.2,0.2-0.2,0.2-0.5V7.8l-5.4,13.7h-0.7L4.3,7.8V17	c-0.1,0.4,0.1,0.8,0.3,1.1l2.5,3.1v0.4H0v-0.4L2.5,18c0.3-0.3,0.4-0.7,0.3-1.1V6.4z" class="st0"/></svg>